<?xml version="1.0" encoding="UTF-8"?>
<!DOCTYPE svg PUBLIC "-//W3C//DTD SVG 1.1//EN" "http://www.w3.org/Graphics/SVG/1.1/DTD/svg11.dtd">
<svg xmlns="http://www.w3.org/2000/svg" version="1.1" width="3840px" height="2160px" style="shape-rendering:geometricPrecision; text-rendering:geometricPrecision; image-rendering:optimizeQuality; fill-rule:evenodd; clip-rule:evenodd" xmlns:xlink="http://www.w3.org/1999/xlink">
<g><path style="opacity:1" fill="#e21836" d="M 1918.5,40.5 C 1918.5,465.833 1918.5,891.167 1918.5,1316.5C 1516.83,1509.42 1115.33,1702.75 714,1896.5C 713.833,1896.17 713.667,1895.83 713.5,1895.5C 1114.94,1276.93 1516.61,658.598 1918.5,40.5 Z"/></g>
<g><path style="opacity:1" fill="#97002d" d="M 1918.5,40.5 C 2320.08,658.655 2721.41,1276.99 3122.5,1895.5C 2720.92,1703.04 2319.59,1510.04 1918.5,1316.5C 1918.5,891.167 1918.5,465.833 1918.5,40.5 Z"/></g>
<g><path style="opacity:1" fill="#e21836" d="M 1918.5,1569.5 C 1918.5,1752.83 1918.5,1936.17 1918.5,2119.5C 1485.17,2119.83 1051.83,2119.5 618.5,2118.5C 626.177,2114.21 634.177,2110.37 642.5,2107C 1067.85,1927.9 1493.02,1748.4 1918,1568.5C 1918.4,1568.73 1918.57,1569.06 1918.5,1569.5 Z"/></g>
<g><path style="opacity:1" fill="#97002d" d="M 1918.5,1569.5 C 2350.92,1751.37 2783.25,1933.53 3215.5,2116C 3216.91,2116.37 3217.91,2117.2 3218.5,2118.5C 2785.17,2119.5 2351.83,2119.83 1918.5,2119.5C 1918.5,1936.17 1918.5,1752.83 1918.5,1569.5 Z"/></g>
<g><path style="opacity:1" fill="#97002d" d="M 3315.5,1737.5 C 3360.99,1735.97 3391.83,1756.31 3408,1798.5C 3417.38,1840.03 3404.55,1872.86 3369.5,1897C 3327.85,1917.4 3291.01,1910.9 3259,1877.5C 3234.23,1843.21 3233.23,1808.21 3256,1772.5C 3270.95,1752.44 3290.78,1740.78 3315.5,1737.5 Z M 3317.5,1749.5 C 3351.85,1748.41 3376.68,1763.08 3392,1793.5C 3404.3,1828.8 3396.14,1858.3 3367.5,1882C 3337.1,1900.74 3307.43,1899.74 3278.5,1879C 3249.64,1851.12 3244.47,1819.28 3263,1783.5C 3276.24,1764.14 3294.41,1752.8 3317.5,1749.5 Z M 3307.5,1783.5 C 3318.23,1783.1 3328.9,1783.6 3339.5,1785C 3350.45,1790.18 3353.28,1798.35 3348,1809.5C 3344.9,1812.93 3341.06,1815.1 3336.5,1816C 3326.86,1817.03 3317.19,1817.53 3307.5,1817.5C 3307.5,1806.17 3307.5,1794.83 3307.5,1783.5 Z"/></g>
<g><path style="opacity:1" fill="#97002d" d="M 3294.5,1773.5 C 3308.17,1773.33 3321.84,1773.5 3335.5,1774C 3357.49,1775.69 3366.33,1787.52 3362,1809.5C 3360.38,1814.78 3357.55,1819.28 3353.5,1823C 3348.88,1825.8 3344.22,1828.3 3339.5,1830.5C 3348.83,1844.17 3358.17,1857.83 3367.5,1871.5C 3363.2,1872.66 3358.87,1872.83 3354.5,1872C 3344.59,1858.17 3334.92,1844.17 3325.5,1830C 3319.51,1829.5 3313.51,1829.33 3307.5,1829.5C 3306.82,1843.82 3306.49,1858.16 3306.5,1872.5C 3302.17,1872.5 3297.83,1872.5 3293.5,1872.5C 3293.17,1839.43 3293.51,1806.43 3294.5,1773.5 Z M 3307.5,1783.5 C 3307.5,1794.83 3307.5,1806.17 3307.5,1817.5C 3317.19,1817.53 3326.86,1817.03 3336.5,1816C 3341.06,1815.1 3344.9,1812.93 3348,1809.5C 3353.28,1798.35 3350.45,1790.18 3339.5,1785C 3328.9,1783.6 3318.23,1783.1 3307.5,1783.5 Z"/></g>
<g><path style="opacity:1" fill="#97002d" d="M 3122.5,1895.5 C 3123.83,1896.17 3123.83,1896.17 3122.5,1895.5 Z"/></g>
</svg>
