<?xml version="1.0" encoding="UTF-8"?>
<!DOCTYPE svg PUBLIC "-//W3C//DTD SVG 1.1//EN" "http://www.w3.org/Graphics/SVG/1.1/DTD/svg11.dtd">
<svg xmlns="http://www.w3.org/2000/svg" version="1.1" width="5000px" height="3461px" style="shape-rendering:geometricPrecision; text-rendering:geometricPrecision; image-rendering:optimizeQuality; fill-rule:evenodd; clip-rule:evenodd" xmlns:xlink="http://www.w3.org/1999/xlink">
<g><path style="opacity:0.995" fill="#e13546" d="M 3018.5,38.5 C 3036.5,38.9091 3054.5,39.4091 3072.5,40C 3036.8,70.3616 3002.3,102.195 2969,135.5C 2936.19,172.48 2918.19,215.814 2915,265.5C 2914.67,453.833 2914.33,642.167 2914,830.5C 2911.6,904.072 2885.93,968.072 2837,1022.5C 2818.8,1040.37 2800.3,1057.87 2781.5,1075C 2732.54,1118.3 2683.87,1161.96 2635.5,1206C 2617.16,1206.83 2598.82,1206.67 2580.5,1205.5C 2622.8,1168.36 2664.3,1130.36 2705,1091.5C 2722.25,1068.31 2732.92,1042.31 2737,1013.5C 2738.32,813.52 2738.99,613.52 2739,413.5C 2739.44,362.398 2751.78,314.398 2776,269.5C 2781.6,259.974 2787.93,250.974 2795,242.5C 2869.7,174.634 2944.2,106.634 3018.5,38.5 Z"/></g>
<g><path style="opacity:0.994" fill="#e23545" d="M 2508.5,38.5 C 2515.39,90.6125 2535.22,137.279 2568,178.5C 2580.3,192.467 2592.97,206.134 2606,219.5C 2621.03,237.211 2633.69,256.544 2644,277.5C 2652.33,294.146 2654.33,311.479 2650,329.5C 2648.5,333.165 2646.5,336.498 2644,339.5C 2616.4,367.651 2588.57,395.651 2560.5,423.5C 2557.11,415.717 2552.94,408.383 2548,401.5C 2537.44,387.933 2525.77,375.266 2513,363.5C 2512.67,417.5 2512.33,471.5 2512,525.5C 2511.13,549.293 2503.63,570.626 2489.5,589.5C 2540.38,643.579 2574.88,706.912 2593,779.5C 2595.87,793.377 2597.87,807.377 2599,821.5C 2599.67,881.833 2599.67,942.167 2599,1002.5C 2596.24,1027.02 2586.24,1048.02 2569,1065.5C 2527.83,1106.67 2486.67,1147.83 2445.5,1189C 2425.47,1207.51 2401.8,1218.18 2374.5,1221C 2236.5,1221.67 2098.5,1221.67 1960.5,1221C 1919.2,1215.45 1886.37,1195.95 1862,1162.5C 1857.89,1155.61 1854.89,1148.28 1853,1140.5C 1851.24,1087.82 1851.24,1035.82 1853,984.5C 1862.5,996.667 1873.33,1007.5 1885.5,1017C 1908.9,1032.34 1934.23,1036.68 1961.5,1030C 1992.23,1020.72 2018.4,1004.22 2040,980.5C 2132.27,883.412 2224.77,786.412 2317.5,689.5C 2249.17,625.313 2177.17,565.813 2101.5,511C 2080.25,499.093 2058.58,498.427 2036.5,509C 2015.82,519.208 2002.32,535.375 1996,557.5C 1989.69,589.421 1985.86,621.588 1984.5,654C 1983.68,718.008 1987.51,782.175 1996,846.5C 1958.33,808.833 1920.67,771.167 1883,733.5C 1863.4,704.207 1855.73,671.874 1860,636.5C 1862.79,608.435 1872.46,583.102 1889,560.5C 1924.15,518.662 1966.99,487.162 2017.5,466C 2035.56,459.187 2054.23,455.187 2073.5,454C 2131.17,453.333 2188.83,453.333 2246.5,454C 2272.07,456.226 2296.74,462.226 2320.5,472C 2367.89,492.778 2411.06,519.945 2450,553.5C 2459.09,543.983 2464.42,532.649 2466,519.5C 2465.98,455.487 2465.48,390.82 2464.5,325.5C 2437.76,299.037 2417.26,268.371 2403,233.5C 2392.72,206.665 2392.05,179.665 2401,152.5C 2404.25,145.66 2408.25,139.327 2413,133.5C 2444.73,101.605 2476.56,69.9381 2508.5,38.5 Z M 2353.5,721.5 C 2355.02,721.511 2356.18,722.177 2357,723.5C 2407.94,776.761 2456.28,832.095 2502,889.5C 2518.08,910.27 2531.75,932.603 2543,956.5C 2560.46,1002.41 2545.3,1030.58 2497.5,1041C 2486.24,1042.8 2474.91,1043.8 2463.5,1044C 2319.17,1044.67 2174.83,1044.67 2030.5,1044C 2042.39,1036.78 2053.72,1028.78 2064.5,1020C 2160.73,920.371 2257.06,820.871 2353.5,721.5 Z"/></g>
<g><path style="opacity:0.994" fill="#e23545" d="M 1630.5,750.5 C 1654.5,750.333 1678.5,750.5 1702.5,751C 1712.61,756.114 1720.45,763.614 1726,773.5C 1736.59,793.285 1743.59,814.285 1747,836.5C 1750.72,858.353 1753.06,880.353 1754,902.5C 1754.67,938.5 1754.67,974.5 1754,1010.5C 1753.44,1058.68 1752.61,1106.35 1751.5,1153.5C 1754.69,1213.79 1778.69,1263.96 1823.5,1304C 1847.96,1323.89 1875.96,1335.56 1907.5,1339C 2184.5,1339.7 2461.5,1339.53 2738.5,1338.5C 2744.42,1297.57 2757.25,1258.9 2777,1222.5C 2783.55,1211.28 2790.89,1200.62 2799,1190.5C 2869.36,1121.46 2941.53,1054.63 3015.5,990C 3029.4,988.564 3043.4,987.731 3057.5,987.5C 3061.83,987.833 3066.17,988.167 3070.5,988.5C 3045.98,1011.86 3020.98,1034.69 2995.5,1057C 2981.7,1069.8 2968.2,1082.97 2955,1096.5C 2933.32,1128.87 2920.32,1164.54 2916,1203.5C 2914.56,1248.48 2914.06,1293.48 2914.5,1338.5C 2955.83,1338.67 2997.17,1338.5 3038.5,1338C 3054.05,1335.59 3068.72,1330.59 3082.5,1323C 3103.45,1310.35 3122.79,1295.51 3140.5,1278.5C 3141.33,1241.17 3141.83,1203.84 3142,1166.5C 3159.96,1186.8 3178.3,1206.8 3197,1226.5C 3228.68,1195.14 3261.85,1165.64 3296.5,1138C 3317.59,1122.12 3340.25,1108.79 3364.5,1098C 3393.47,1087.05 3422.47,1087.05 3451.5,1098C 3482.57,1112.26 3500.4,1136.43 3505,1170.5C 3511,1224.81 3498,1274.48 3466,1319.5C 3416.79,1367.71 3366.62,1414.88 3315.5,1461C 3280.29,1486.17 3243.29,1489.17 3204.5,1470C 3181.68,1455.18 3165.52,1435.02 3156,1409.5C 3145.78,1380.38 3140.44,1350.38 3140,1319.5C 3089.74,1368.1 3038.57,1415.6 2986.5,1462C 2962.64,1486.53 2938.81,1511.03 2915,1535.5C 2914.67,1642.5 2914.33,1749.5 2914,1856.5C 2913.2,1898.95 2905.2,1939.95 2890,1979.5C 2880.52,2001.62 2867.86,2021.62 2852,2039.5C 2779.73,2107.44 2706.57,2174.27 2632.5,2240C 2613.83,2240.67 2595.17,2240.67 2576.5,2240C 2608.46,2212.37 2640.13,2184.37 2671.5,2156C 2703.17,2130.31 2723.34,2097.47 2732,2057.5C 2735.09,2043.65 2737.09,2029.65 2738,2015.5C 2738.21,1854.54 2737.71,1693.54 2736.5,1532.5C 2490.83,1532.67 2245.17,1532.5 1999.5,1532C 1908.62,1526.99 1837.12,1487.49 1785,1413.5C 1739.73,1344.68 1713.73,1269.02 1707,1186.5C 1706.67,1086.5 1706.33,986.5 1706,886.5C 1700.69,843.524 1684.36,805.524 1657,772.5C 1648.67,764.295 1639.84,756.962 1630.5,750.5 Z M 3295.5,1227.5 C 3319.79,1224.15 3341.46,1229.99 3360.5,1245C 3379.15,1267.99 3389.49,1294.32 3391.5,1324C 3388.69,1360.74 3370.02,1372.74 3335.5,1360C 3323.15,1354.16 3311.81,1346.83 3301.5,1338C 3275.07,1311.9 3249.73,1284.9 3225.5,1257C 3246.67,1241.91 3270,1232.08 3295.5,1227.5 Z"/></g>
<g><path style="opacity:0.994" fill="#e13545" d="M 1544.5,1367.5 C 1569,1366.34 1593.66,1366.17 1618.5,1367C 1625.85,1370.27 1632.02,1375.1 1637,1381.5C 1647.87,1399.42 1655.2,1418.76 1659,1439.5C 1664.11,1466.6 1667.11,1493.93 1668,1521.5C 1668.33,1599.5 1668.67,1677.5 1669,1755.5C 1673.63,1872.61 1722.8,1965.78 1816.5,2035C 1871.74,2074.76 1933.41,2098.1 2001.5,2105C 2060.82,2106.13 2120.16,2106.63 2179.5,2106.5C 2269.84,2106.43 2360.17,2105.93 2450.5,2105C 2489.59,2096.9 2518.76,2075.4 2538,2040.5C 2564.98,1986.2 2556.15,1938.7 2511.5,1898C 2486.4,1876.23 2462.56,1853.06 2440,1828.5C 2439.17,1751.16 2439.33,1673.83 2440.5,1596.5C 2478.18,1631.34 2514.68,1667.34 2550,1704.5C 2576.02,1737.88 2589.35,1775.88 2590,1818.5C 2590.49,1863.54 2590.66,1908.37 2590.5,1953C 2589.69,1987.4 2582.85,2020.57 2570,2052.5C 2559.74,2073.74 2546.74,2093.08 2531,2110.5C 2501.51,2143.65 2471.01,2175.82 2439.5,2207C 2419.7,2224.48 2399.03,2240.81 2377.5,2256C 2351.25,2273.09 2322.58,2284.09 2291.5,2289C 2271.94,2291.87 2252.27,2293.54 2232.5,2294C 2163.83,2294.67 2095.17,2294.67 2026.5,2294C 1936.22,2291.16 1856.22,2261.49 1786.5,2205C 1686.01,2120.85 1630.84,2013.02 1621,1881.5C 1620.67,1755.83 1620.33,1630.17 1620,1504.5C 1616.64,1446.42 1591.47,1400.75 1544.5,1367.5 Z"/></g>
<g><path style="opacity:0.995" fill="#e13545" d="M 3049.5,1497.5 C 3079.07,1523.9 3107.9,1551.23 3136,1579.5C 3175.29,1621.98 3196.29,1672.32 3199,1730.5C 3199.17,1783.17 3199.33,1835.83 3199.5,1888.5C 3199.62,1948.84 3199.12,2009.18 3198,2069.5C 3187.96,2217.84 3120.13,2330.68 2994.5,2408C 2921.7,2452.15 2842.7,2476.82 2757.5,2482C 2701.83,2482.67 2646.17,2482.67 2590.5,2482C 2521.99,2422.32 2453.66,2362.49 2385.5,2302.5C 2508.5,2301.67 2631.5,2301.17 2754.5,2301C 2815.64,2294.74 2871.3,2274.07 2921.5,2239C 2948.78,2219.57 2974.44,2198.07 2998.5,2174.5C 3043.79,2131.07 3083.63,2083.41 3118,2031.5C 3139.49,1998.69 3154.16,1963.02 3162,1924.5C 3169.06,1884.78 3160.73,1848.78 3137,1816.5C 3108.71,1785.68 3079.71,1755.34 3050,1725.5C 3049.5,1649.5 3049.33,1573.5 3049.5,1497.5 Z"/></g>
<g><path style="opacity:0.992" fill="#e23446" d="M 1936.5,1616.5 C 1970.41,1648.24 2003.91,1680.58 2037,1713.5C 2052.51,1729.51 2062.51,1748.51 2067,1770.5C 2070.17,1783.99 2068.17,1796.65 2061,1808.5C 2052.97,1821.22 2043.97,1833.22 2034,1844.5C 2002.23,1877.94 1968.9,1909.6 1934,1939.5C 1926.51,1912.86 1914.51,1888.52 1898,1866.5C 1867.21,1827.54 1834.05,1790.54 1798.5,1755.5C 1844.52,1709.15 1890.52,1662.81 1936.5,1616.5 Z"/></g>
<g><path style="opacity:0.993" fill="#e23545" d="M 2219.5,1615.5 C 2252.8,1647.63 2285.96,1679.96 2319,1712.5C 2330.78,1725.05 2339.78,1739.38 2346,1755.5C 2350.31,1768.62 2351.31,1781.96 2349,1795.5C 2344.19,1807.13 2337.86,1817.79 2330,1827.5C 2295.3,1867.75 2257.47,1904.75 2216.5,1938.5C 2212.38,1923.93 2206.88,1909.93 2200,1896.5C 2191.45,1881.96 2182.12,1867.96 2172,1854.5C 2143.71,1819.53 2113.21,1786.37 2080.5,1755C 2126.65,1708.35 2172.98,1661.85 2219.5,1615.5 Z"/></g>
<g><path style="opacity:0.992" fill="#e13445" d="M 2114.5,2432.5 C 2159.11,2428.88 2191.95,2446.55 2213,2485.5C 2228.83,2525.72 2221.33,2560.89 2190.5,2591C 2160.52,2614.29 2127.52,2619.62 2091.5,2607C 2056.04,2590.62 2037.71,2562.78 2036.5,2523.5C 2038.27,2480.45 2059.27,2451.29 2099.5,2436C 2104.65,2434.88 2109.65,2433.71 2114.5,2432.5 Z"/></g>
<g><path style="opacity:0.994" fill="#e23545" d="M 39.5,2483.5 C 203.333,2482.33 367.333,2482.17 531.5,2483C 586.647,2483.12 638.647,2495.79 687.5,2521C 732.329,2546.83 762.829,2584.33 779,2633.5C 780.966,2639.13 781.799,2644.8 781.5,2650.5C 720.05,2611.3 652.717,2590.47 579.5,2588C 564.181,2587.02 548.848,2586.36 533.5,2586C 463.496,2585.79 393.496,2585.29 323.5,2584.5C 319.5,2584.83 315.5,2585.17 311.5,2585.5C 316.971,2593.4 320.804,2602.07 323,2611.5C 328.132,2634.55 331.132,2657.89 332,2681.5C 332.5,2721.17 332.667,2760.83 332.5,2800.5C 376.52,2800.07 420.52,2800.57 464.5,2802C 547.318,2812.7 607.984,2854.87 646.5,2928.5C 646.167,2928.83 645.833,2929.17 645.5,2929.5C 613.736,2912.08 579.736,2901.58 543.5,2898C 525.042,2896.26 506.542,2895.43 488,2895.5C 436.166,2896.2 384.332,2896.86 332.5,2897.5C 332.333,3005.17 332.5,3112.83 333,3220.5C 334.355,3240.03 337.021,3259.36 341,3278.5C 349.598,3306.74 368.765,3320.91 398.5,3321C 478.5,3321.67 558.5,3321.67 638.5,3321C 679.184,3320.47 717.517,3310.8 753.5,3292C 771.52,3282.31 786.02,3268.81 797,3251.5C 797.431,3272.51 797.098,3293.51 796,3314.5C 788.458,3361.71 762.625,3394.54 718.5,3413C 705.861,3417.77 692.861,3421.1 679.5,3423C 512.185,3424.65 344.851,3424.99 177.5,3424C 166.562,3419.39 157.728,3412.23 151,3402.5C 141.738,3387.72 135.405,3371.72 132,3354.5C 127.695,3334.06 125.362,3313.39 125,3292.5C 123.096,3082.42 121.096,2872.76 119,2663.5C 115.225,2602.81 94.5582,2548.81 57,2501.5C 51.6625,2495 45.8292,2489 39.5,2483.5 Z"/></g>
<g><path style="opacity:0.995" fill="#e23545" d="M 3703.5,2502.5 C 3704.5,2559.33 3704.83,2616.33 3704.5,2673.5C 3759.83,2673.5 3815.17,2673.5 3870.5,2673.5C 3870.5,2711.5 3870.5,2749.5 3870.5,2787.5C 3817.93,2762.8 3762.59,2753.13 3704.5,2758.5C 3704.01,2938.52 3704.51,3118.52 3706,3298.5C 3714.34,3350.04 3739.18,3391.54 3780.5,3423C 3713.5,3423.67 3646.5,3423.67 3579.5,3423C 3572.01,3421.25 3565.34,3417.92 3559.5,3413C 3546.09,3399.35 3536.92,3383.19 3532,3364.5C 3528.05,3350.07 3525.38,3335.4 3524,3320.5C 3522.51,3132.85 3522.01,2945.18 3522.5,2757.5C 3480.48,2757.55 3438.48,2756.71 3396.5,2755C 3448.63,2729.13 3498.97,2700.47 3547.5,2669C 3610.14,2623.2 3662.14,2567.7 3703.5,2502.5 Z"/></g>
<g><path style="opacity:0.996" fill="#e23545" d="M 1246.5,2668.5 C 1310.8,2665.89 1367.47,2685.06 1416.5,2726C 1441.63,2749.13 1459.46,2776.97 1470,2809.5C 1482.07,2777.16 1499.4,2748.16 1522,2722.5C 1556.81,2686.83 1599.31,2669.16 1649.5,2669.5C 1697.17,2669.5 1742.17,2680.33 1784.5,2702C 1839.51,2735.09 1869.01,2783.93 1873,2848.5C 1873.33,2992.83 1873.67,3137.17 1874,3281.5C 1878.85,3339.71 1904.02,3386.88 1949.5,3423C 1881.83,3423.67 1814.17,3423.67 1746.5,3423C 1740.18,3421.67 1734.51,3419.01 1729.5,3415C 1714,3399.17 1703.83,3380.34 1699,3358.5C 1694.92,3340.37 1692.26,3322.04 1691,3303.5C 1689.95,3269.51 1689.45,3235.51 1689.5,3201.5C 1690.45,3100.5 1690.61,2999.5 1690,2898.5C 1685.15,2852.62 1661.31,2821.12 1618.5,2804C 1576.87,2791.73 1539.2,2799.06 1505.5,2826C 1492.28,2838.93 1482.45,2854.1 1476,2871.5C 1475.02,3011.85 1475.35,3152.18 1477,3292.5C 1485.07,3345.83 1509.9,3389.33 1551.5,3423C 1483.17,3423.67 1414.83,3423.67 1346.5,3423C 1333.25,3417.75 1323.08,3408.92 1316,3396.5C 1304.35,3373.89 1297.35,3349.89 1295,3324.5C 1294.14,3316.52 1293.48,3308.52 1293,3300.5C 1292.67,3164.17 1292.33,3027.83 1292,2891.5C 1284.23,2848.77 1260.39,2818.93 1220.5,2802C 1180.04,2792.03 1143.04,2799.37 1109.5,2824C 1094.09,2836.33 1083.26,2851.83 1077,2870.5C 1076.01,3012.19 1076.35,3153.86 1078,3295.5C 1085.49,3348.34 1110.32,3390.84 1152.5,3423C 1084.5,3423.67 1016.5,3423.67 948.5,3423C 934.675,3418.18 924.175,3409.35 917,3396.5C 905.514,3374.89 898.514,3351.89 896,3327.5C 894.228,3313.84 893.395,3300.34 893.5,3287C 892.667,3124.9 892.167,2962.74 892,2800.5C 889.943,2764.76 878.61,2732.43 858,2703.5C 848.679,2691.77 837.512,2682.27 824.5,2675C 870.841,2673.11 917.174,2673.11 963.5,2675C 1000.89,2680.26 1029.06,2699.1 1048,2731.5C 1060.8,2755.73 1068.8,2781.39 1072,2808.5C 1088.16,2762.61 1115.99,2725.77 1155.5,2698C 1183.54,2680.82 1213.87,2670.99 1246.5,2668.5 Z"/></g>
<g><path style="opacity:0.994" fill="#e23545" d="M 4695.5,2668.5 C 4773.42,2664.43 4844.59,2684.1 4909,2727.5C 4909.67,2769.5 4909.67,2811.5 4909,2853.5C 4893.46,2823.27 4871.96,2798.1 4844.5,2778C 4799.54,2749.11 4751.54,2742.78 4700.5,2759C 4661.12,2777.96 4648.95,2808.13 4664,2849.5C 4674.25,2870.08 4689.08,2886.58 4708.5,2899C 4751.33,2922.58 4793,2947.91 4833.5,2975C 4859.09,2992.58 4882.26,3013.08 4903,3036.5C 4956.21,3103.91 4969.55,3178.58 4943,3260.5C 4920.75,3315.09 4883.92,3356.92 4832.5,3386C 4768.14,3421.2 4699.81,3432.2 4627.5,3419C 4582.33,3411.62 4540.5,3395.78 4502,3371.5C 4501.17,3326.5 4501.33,3281.5 4502.5,3236.5C 4519.93,3274.21 4546.27,3304.05 4581.5,3326C 4611.18,3341.45 4642.51,3346.11 4675.5,3340C 4713.97,3334.03 4745.14,3315.86 4769,3285.5C 4799.15,3240.18 4797.48,3196.18 4764,3153.5C 4750.91,3139.07 4736.08,3126.9 4719.5,3117C 4668.58,3090.39 4620.91,3059.06 4576.5,3023C 4512.47,2965.41 4486.97,2893.91 4500,2808.5C 4509.77,2775.12 4527.93,2747.28 4554.5,2725C 4595.84,2692.16 4642.84,2673.33 4695.5,2668.5 Z"/></g>
<g><path style="opacity:0.994" fill="#e23545" d="M 4187.5,2669.5 C 4232.98,2668.97 4276.64,2677.47 4318.5,2695C 4354.03,2710.67 4382.2,2734.83 4403,2767.5C 4425.98,2810.89 4428.65,2855.55 4411,2901.5C 4398.85,2930.49 4382.18,2956.49 4361,2979.5C 4326.62,3016.57 4287.12,3046.74 4242.5,3070C 4222.29,3079.94 4201.95,3089.61 4181.5,3099C 4145.54,3114.56 4114.7,3137.06 4089,3166.5C 4093.41,3209.08 4108.41,3247.41 4134,3281.5C 4163.01,3316.09 4200.18,3334.92 4245.5,3338C 4302.24,3342.09 4349.41,3322.93 4387,3280.5C 4398.11,3266.73 4408.44,3252.39 4418,3237.5C 4418.18,3281.57 4418.35,3324.73 4418.5,3367C 4415.93,3371.91 4412.27,3375.91 4407.5,3379C 4382.51,3394.65 4355.51,3405.65 4326.5,3412C 4268.14,3424.91 4209.31,3427.74 4150,3420.5C 4049.06,3402.83 3973.73,3349.5 3924,3260.5C 3891.52,3198.56 3875.68,3132.56 3876.5,3062.5C 3876.44,2991.62 3890.28,2923.62 3918,2858.5C 3945.8,2793.71 3989.63,2742.88 4049.5,2706C 4092.56,2682.25 4138.56,2670.08 4187.5,2669.5 Z M 4178.5,2730.5 C 4223.01,2728.19 4249.51,2748.86 4258,2792.5C 4266.34,2885.28 4234.51,2960.78 4162.5,3019C 4142.77,3033.06 4122.77,3046.72 4102.5,3060C 4093.2,3067.25 4084.36,3075.08 4076,3083.5C 4071.22,3016.62 4073.55,2949.95 4083,2883.5C 4087.44,2852.07 4095.77,2821.73 4108,2792.5C 4116.67,2771.5 4130.17,2754.34 4148.5,2741C 4157.92,2735.44 4167.92,2731.94 4178.5,2730.5 Z"/></g>
<g><path style="opacity:0.995" fill="#e13445" d="M 3079.5,2672.5 C 3146.35,2668.54 3207.02,2685.71 3261.5,2724C 3294.14,2748.11 3316.31,2779.61 3328,2818.5C 3330.25,2828.95 3331.75,2839.45 3332.5,2850C 3332.59,2989.64 3332.26,3129.64 3331.5,3270C 3333.87,3333.4 3359.87,3384.73 3409.5,3424C 3341.13,3424.02 3272.8,3423.35 3204.5,3422C 3190.78,3415.61 3180.28,3405.78 3173,3392.5C 3164.26,3374.95 3157.93,3356.62 3154,3337.5C 3124.53,3390.35 3079.36,3419.18 3018.5,3424C 2969.85,3428.2 2923.85,3419.2 2880.5,3397C 2831.18,3367.59 2803.68,3324.09 2798,3266.5C 2790.86,3184.32 2818.36,3116.48 2880.5,3063C 2912.49,3037.65 2947.16,3016.32 2984.5,2999C 3021.17,2982.33 3057.83,2965.67 3094.5,2949C 3122.56,2934.94 3144.06,2914.11 3159,2886.5C 3169.16,2863.24 3171.49,2839.24 3166,2814.5C 3156.95,2787.12 3138.45,2769.62 3110.5,2762C 3036.84,2742.77 2978.01,2763.94 2934,2825.5C 2926.91,2836.01 2920.58,2847.01 2915,2858.5C 2914.33,2814.83 2914.33,2771.17 2915,2727.5C 2948.13,2705.22 2984.29,2689.72 3023.5,2681C 3042.16,2677.17 3060.83,2674.34 3079.5,2672.5 Z M 3150.5,2981.5 C 3151.67,3085.67 3151.83,3190 3151,3294.5C 3131.56,3319.97 3105.73,3334.14 3073.5,3337C 3043.98,3340.1 3016.98,3333.43 2992.5,3317C 2977.17,3304.2 2967.01,3288.03 2962,3268.5C 2949.24,3192.44 2970.74,3127.6 3026.5,3074C 3041.26,3061.24 3056.59,3049.24 3072.5,3038C 3096.99,3023.17 3120.65,3007.17 3143.5,2990C 3146.42,2987.58 3148.76,2984.75 3150.5,2981.5 Z"/></g>
<g><path style="opacity:0.996" fill="#e23545" d="M 1969.5,2674.5 C 2015,2673.34 2060.66,2673.17 2106.5,2674C 2161.24,2676.74 2195.74,2704.57 2210,2757.5C 2216.78,2784.41 2220.28,2811.75 2220.5,2839.5C 2219.5,2983.34 2219.33,3127.34 2220,3271.5C 2222.32,3333.97 2247.82,3384.47 2296.5,3423C 2229.17,3423.67 2161.83,3423.67 2094.5,3423C 2088.68,3421.75 2083.34,3419.42 2078.5,3416C 2068.1,3407.02 2060.26,3396.19 2055,3383.5C 2045.26,3358.08 2039.93,3331.75 2039,3304.5C 2038.67,3139.83 2038.33,2975.17 2038,2810.5C 2037.45,2769.17 2024.78,2732.17 2000,2699.5C 1991.41,2689.06 1981.25,2680.73 1969.5,2674.5 Z"/></g>
<g><path style="opacity:0.994" fill="#e23545" d="M 2324.5,2673.5 C 2372.68,2672.1 2421.01,2672.27 2469.5,2674C 2509.99,2675.89 2538.49,2695.06 2555,2731.5C 2565.42,2760.26 2571.75,2789.93 2574,2820.5C 2585.07,2774.49 2608.24,2735.99 2643.5,2705C 2680.98,2678.04 2722.32,2670.04 2767.5,2681C 2795.49,2687.56 2816.33,2703.4 2830,2728.5C 2830.67,2771.5 2830.67,2814.5 2830,2857.5C 2787.85,2811.45 2736.02,2794.62 2674.5,2807C 2645.28,2813.58 2620.44,2827.74 2600,2849.5C 2587.9,2864.79 2580.23,2882.12 2577,2901.5C 2576.33,3030.5 2576.33,3159.5 2577,3288.5C 2583.5,3343.69 2608.34,3388.52 2651.5,3423C 2584.5,3423.67 2517.5,3423.67 2450.5,3423C 2440.39,3419.57 2431.89,3413.74 2425,3405.5C 2411.98,3386.45 2403.65,3365.45 2400,3342.5C 2397.34,3327.61 2395.68,3312.61 2395,3297.5C 2394.99,3128.82 2394.32,2960.15 2393,2791.5C 2389.65,2756.75 2377.32,2725.75 2356,2698.5C 2346.78,2688.43 2336.28,2680.1 2324.5,2673.5 Z"/></g>
</svg>
