<?xml version="1.0" encoding="UTF-8"?>
<!DOCTYPE svg PUBLIC "-//W3C//DTD SVG 1.1//EN" "http://www.w3.org/Graphics/SVG/1.1/DTD/svg11.dtd">
<svg xmlns="http://www.w3.org/2000/svg" version="1.1" width="1026px" height="1024px" style="shape-rendering:geometricPrecision; text-rendering:geometricPrecision; image-rendering:optimizeQuality; fill-rule:evenodd; clip-rule:evenodd" xmlns:xlink="http://www.w3.org/1999/xlink">
<g><path style="opacity:0.977" fill="#0a1c3c" d="M 479.5,-0.5 C 500.833,-0.5 522.167,-0.5 543.5,-0.5C 699.74,12.6885 825.907,80.6885 922,203.5C 1009.8,325.116 1040.8,460.116 1015,608.5C 982.025,763.724 897.192,880.891 760.5,960C 692.101,997.182 619.101,1018.35 541.5,1023.5C 521.5,1023.5 501.5,1023.5 481.5,1023.5C 322.912,1010.81 195.412,941.807 99,816.5C 39.982,735.092 6.81531,644.092 -0.5,543.5C -0.5,522.167 -0.5,500.833 -0.5,479.5C 12.9287,319.767 83.2621,191.934 210.5,96C 290.948,38.5695 380.615,6.40281 479.5,-0.5 Z M 495.5,30.5 C 646.794,29.0569 772.96,84.0569 874,195.5C 971.372,311.612 1008.37,444.945 985,595.5C 959.9,723.62 895.067,826.12 790.5,903C 674.422,982.75 547.089,1008.75 408.5,981C 280.258,950.512 179.758,880.678 107,771.5C 32.3132,650.699 12.6465,521.366 48,383.5C 89.7256,243.116 176.226,140.616 307.5,76C 367.304,48.548 429.971,33.3814 495.5,30.5 Z"/></g>
<g><path style="opacity:0.98" fill="#0a1c3c" d="M 86.5,384.5 C 107.502,393.084 128.335,402.084 149,411.5C 155.833,406 162.667,400.5 169.5,395C 238.42,425.288 307.086,456.454 375.5,488.5C 371.673,492.157 367.673,495.657 363.5,499C 362.167,499.667 360.833,499.667 359.5,499C 325.383,484.442 291.383,469.608 257.5,454.5C 254.528,456.306 251.695,458.306 249,460.5C 248.383,461.449 248.549,462.282 249.5,463C 278.23,479.7 307.563,495.366 337.5,510C 414.066,544.154 480.9,530.654 538,469.5C 558.606,446.037 575.439,420.037 588.5,391.5C 600.365,389.146 612.365,387.646 624.5,387C 731.588,380.751 837.588,388.417 942.5,410C 934.904,417.051 927.404,424.218 920,431.5C 847.884,417.398 775.05,410.565 701.5,411C 698.749,415.837 695.749,420.503 692.5,425C 763.783,425.662 834.45,432.496 904.5,445.5C 897.833,452.833 890.833,459.833 883.5,466.5C 815.426,453.84 746.759,448.34 677.5,450C 673.545,455.623 669.212,460.957 664.5,466C 733.292,463.84 801.625,468.507 869.5,480C 862.554,487.621 855.054,494.454 847,500.5C 779.782,490.318 712.282,487.485 644.5,492C 639.5,497.667 634.5,503.333 629.5,509C 690.549,504.877 751.549,505.877 812.5,512C 819.289,512.565 825.956,513.731 832.5,515.5C 826.317,522.517 819.65,529.017 812.5,535C 793.543,533.516 774.543,532.183 755.5,531C 682.252,524.595 612.586,537.262 546.5,569C 536.34,573.91 526.674,579.577 517.5,586C 578.634,645.558 651.968,679.891 737.5,689C 752.16,689.917 766.827,690.75 781.5,691.5C 770.193,702.473 758.86,713.473 747.5,724.5C 618.099,698.45 497.099,651.284 384.5,583C 343.329,556.249 302.329,529.249 261.5,502C 206.72,466.436 149.054,435.77 88.5,410C 87.8742,409.25 87.3742,408.416 87,407.5C 86.5003,399.841 86.3336,392.174 86.5,384.5 Z"/></g>
</svg>
