<svg width="57" height="57" viewBox="0 0 57 57" fill="none" xmlns="http://www.w3.org/2000/svg">
<rect x="0.75" y="0.75" width="55.5" height="55.5" rx="13.75" stroke="#E5E7EB" stroke-width="0.5"/>
<path d="M35.2667 36.9L33.1667 27.3333L37.25 23.25C39 21.5 39.5833 19.1667 39 18C37.8333 17.4167 35.5 18 33.75 19.75L29.6667 23.8333L20.1 21.7333C19.5167 21.6167 19.05 21.85 18.8167 22.3167L18.4667 22.9C18.2333 23.4833 18.35 24.0667 18.8167 24.4167L25 28.5L22.6667 32H19.1667L18 33.1667L21.5 35.5L23.8333 39L25 37.8333V34.3333L28.5 32L32.5833 38.1833C32.9333 38.65 33.5167 38.7667 34.1 38.5333L34.6833 38.3C35.15 37.95 35.3833 37.4833 35.2667 36.9Z" stroke="#374151" stroke-width="2.33333" stroke-linecap="round" stroke-linejoin="round"/>
</svg>
